<?xml version="1.0" encoding="UTF-8" standalone="no"?>
<svg width="456" height="456" viewBox="0 0 456 456" version="1.1" xmlns="http://www.w3.org/2000/svg">
    <!-- Back card (slightly rotated and offset) -->
    <g transform="translate(228,228) rotate(-15) translate(-228,-228)">
        <rect x="128" y="88" width="180" height="260" rx="16" ry="16" fill="#ffffff" opacity="0.7"/>
    </g>
    
    <!-- Front card -->
    <g transform="translate(228,228) rotate(10) translate(-228,-228)">
        <rect x="148" y="108" width="180" height="260" rx="16" ry="16" fill="#ffffff"/>
        
        <!-- Spade symbol in center -->
        <g transform="translate(238, 238)">
            <!-- Spade shape -->
            <path d="M0,-50 C-30,-20 -50,10 -50,35 C-50,55 -35,70 -15,70 C-5,70 3,65 8,58 L0,90 L-20,90 L-20,100 L20,100 L20,90 L0,90 L-8,58 C-3,65 5,70 15,70 C35,70 50,55 50,35 C50,10 30,-20 0,-50 Z" 
                  fill="#1a1a1a"/>
        </g>
    </g>
</svg>