<?xml version="1.0" encoding="UTF-8" standalone="no"?>
<svg width="1024" height="500" viewBox="0 0 1024 500" version="1.1" xmlns="http://www.w3.org/2000/svg">
    <defs>
        <!-- Radial gradient matching game table colors -->
        <radialGradient id="tableGradient" cx="50%" cy="40%" r="80%" fx="50%" fy="40%">
            <stop offset="0%" style="stop-color:#1A6B4A;stop-opacity:1" />
            <stop offset="30%" style="stop-color:#0F5438;stop-opacity:1" />
            <stop offset="50%" style="stop-color:#0C4A32;stop-opacity:1" />
            <stop offset="70%" style="stop-color:#0A3F2B;stop-opacity:1" />
            <stop offset="90%" style="stop-color:#073022;stop-opacity:1" />
            <stop offset="100%" style="stop-color:#05241A;stop-opacity:1" />
        </radialGradient>
    </defs>
    
    <!-- Dark base layer -->
    <rect x="0" y="0" width="1024" height="500" fill="#0A3A28" />
    
    <!-- Background with radial gradient -->
    <rect x="0" y="0" width="1024" height="500" fill="url(#tableGradient)" />
    
    <!-- ============== SCATTERED CHIPS (Background Layer) ============== -->
    
    <!-- Chip $5 (red) - bottom left -->
    <g transform="translate(80, 420) rotate(-12)">
        <circle r="75" fill="#8B0000" stroke="#5a0000" stroke-width="2"/>
        <circle cx="0" cy="-65" r="6" fill="#ffffff"/>
        <circle cx="46" cy="-46" r="6" fill="#ffffff"/>
        <circle cx="65" cy="0" r="6" fill="#ffffff"/>
        <circle cx="46" cy="46" r="6" fill="#ffffff"/>
        <circle cx="0" cy="65" r="6" fill="#ffffff"/>
        <circle cx="-46" cy="46" r="6" fill="#ffffff"/>
        <circle cx="-65" cy="0" r="6" fill="#ffffff"/>
        <circle cx="-46" cy="-46" r="6" fill="#ffffff"/>
        <circle r="58" fill="#DC143C" stroke="#B00020" stroke-width="3"/>
        <circle r="42" fill="none" stroke="#ffffff" stroke-width="2" stroke-dasharray="4,4"/>
        <text y="-8" font-family="Arial, sans-serif" font-size="20" font-weight="bold" fill="#ffffff" text-anchor="middle">$</text>
        <text y="25" font-family="Arial, sans-serif" font-size="35" font-weight="bold" fill="#ffffff" text-anchor="middle">5</text>
    </g>
    
    <!-- Chip $25 (green) - top left -->
    <g transform="translate(50, 100) rotate(8)">
        <circle r="75" fill="#0d5e0d" stroke="#084508" stroke-width="2"/>
        <circle cx="0" cy="-65" r="6" fill="#ffffff"/>
        <circle cx="46" cy="-46" r="6" fill="#ffffff"/>
        <circle cx="65" cy="0" r="6" fill="#ffffff"/>
        <circle cx="46" cy="46" r="6" fill="#ffffff"/>
        <circle cx="0" cy="65" r="6" fill="#ffffff"/>
        <circle cx="-46" cy="46" r="6" fill="#ffffff"/>
        <circle cx="-65" cy="0" r="6" fill="#ffffff"/>
        <circle cx="-46" cy="-46" r="6" fill="#ffffff"/>
        <circle r="58" fill="#228B22" stroke="#1a6b1a" stroke-width="3"/>
        <circle r="42" fill="none" stroke="#ffffff" stroke-width="2" stroke-dasharray="4,4"/>
        <text y="-8" font-family="Arial, sans-serif" font-size="20" font-weight="bold" fill="#ffffff" text-anchor="middle">$</text>
        <text y="25" font-family="Arial, sans-serif" font-size="30" font-weight="bold" fill="#ffffff" text-anchor="middle">25</text>
    </g>
    
    <!-- Chip $100 (black) - overlapping top left -->
    <g transform="translate(130, 140) rotate(-5)">
        <circle r="75" fill="#0a0a0a" stroke="#000000" stroke-width="2"/>
        <circle cx="0" cy="-65" r="6" fill="#ffffff"/>
        <circle cx="46" cy="-46" r="6" fill="#ffffff"/>
        <circle cx="65" cy="0" r="6" fill="#ffffff"/>
        <circle cx="46" cy="46" r="6" fill="#ffffff"/>
        <circle cx="0" cy="65" r="6" fill="#ffffff"/>
        <circle cx="-46" cy="46" r="6" fill="#ffffff"/>
        <circle cx="-65" cy="0" r="6" fill="#ffffff"/>
        <circle cx="-46" cy="-46" r="6" fill="#ffffff"/>
        <circle r="58" fill="#1a1a1a" stroke="#333333" stroke-width="3"/>
        <circle r="42" fill="none" stroke="#ffffff" stroke-width="2" stroke-dasharray="4,4"/>
        <text y="-8" font-family="Arial, sans-serif" font-size="20" font-weight="bold" fill="#ffffff" text-anchor="middle">$</text>
        <text y="25" font-family="Arial, sans-serif" font-size="28" font-weight="bold" fill="#ffffff" text-anchor="middle">100</text>
    </g>
    
    <!-- Chip $1 (white) - bottom center-left -->
    <g transform="translate(200, 380) rotate(15)">
        <circle r="75" fill="#2c2c2c" stroke="#1a1a1a" stroke-width="2"/>
        <circle cx="0" cy="-65" r="6" fill="#000000"/>
        <circle cx="46" cy="-46" r="6" fill="#000000"/>
        <circle cx="65" cy="0" r="6" fill="#000000"/>
        <circle cx="46" cy="46" r="6" fill="#000000"/>
        <circle cx="0" cy="65" r="6" fill="#000000"/>
        <circle cx="-46" cy="46" r="6" fill="#000000"/>
        <circle cx="-65" cy="0" r="6" fill="#000000"/>
        <circle cx="-46" cy="-46" r="6" fill="#000000"/>
        <circle r="58" fill="#f5f5f5" stroke="#d0d0d0" stroke-width="3"/>
        <circle r="42" fill="none" stroke="#333333" stroke-width="2" stroke-dasharray="4,4"/>
        <text y="-8" font-family="Arial, sans-serif" font-size="20" font-weight="bold" fill="#333333" text-anchor="middle">$</text>
        <text y="25" font-family="Arial, sans-serif" font-size="35" font-weight="bold" fill="#333333" text-anchor="middle">1</text>
    </g>
    
    <!-- Chip $500 (purple) - top right -->
    <g transform="translate(920, 80) rotate(-10)">
        <circle r="75" fill="#4B0082" stroke="#2d004e" stroke-width="2"/>
        <circle cx="0" cy="-65" r="6" fill="#FFD700"/>
        <circle cx="46" cy="-46" r="6" fill="#FFD700"/>
        <circle cx="65" cy="0" r="6" fill="#FFD700"/>
        <circle cx="46" cy="46" r="6" fill="#FFD700"/>
        <circle cx="0" cy="65" r="6" fill="#FFD700"/>
        <circle cx="-46" cy="46" r="6" fill="#FFD700"/>
        <circle cx="-65" cy="0" r="6" fill="#FFD700"/>
        <circle cx="-46" cy="-46" r="6" fill="#FFD700"/>
        <circle r="58" fill="#7B2CBF" stroke="#5a1f8f" stroke-width="3"/>
        <circle r="42" fill="none" stroke="#FFD700" stroke-width="2" stroke-dasharray="4,4"/>
        <text y="-8" font-family="Arial, sans-serif" font-size="20" font-weight="bold" fill="#FFD700" text-anchor="middle">$</text>
        <text y="25" font-family="Arial, sans-serif" font-size="28" font-weight="bold" fill="#FFD700" text-anchor="middle">500</text>
    </g>
    
    <!-- Chip $25 (green) - top right, left of  -->
    <g transform="translate(820, 60) rotate(12)">
        <circle r="75" fill="#0d5e0d" stroke="#084508" stroke-width="2"/>
        <circle cx="0" cy="-65" r="6" fill="#ffffff"/>
        <circle cx="46" cy="-46" r="6" fill="#ffffff"/>
        <circle cx="65" cy="0" r="6" fill="#ffffff"/>
        <circle cx="46" cy="46" r="6" fill="#ffffff"/>
        <circle cx="0" cy="65" r="6" fill="#ffffff"/>
        <circle cx="-46" cy="46" r="6" fill="#ffffff"/>
        <circle cx="-65" cy="0" r="6" fill="#ffffff"/>
        <circle cx="-46" cy="-46" r="6" fill="#ffffff"/>
        <circle r="58" fill="#228B22" stroke="#1a6b1a" stroke-width="3"/>
        <circle r="42" fill="none" stroke="#ffffff" stroke-width="2" stroke-dasharray="4,4"/>
        <text y="-8" font-family="Arial, sans-serif" font-size="20" font-weight="bold" fill="#ffffff" text-anchor="middle">$</text>
        <text y="25" font-family="Arial, sans-serif" font-size="30" font-weight="bold" fill="#ffffff" text-anchor="middle">25</text>
    </g>
    
    <!-- Chip $5 (red) - bottom right -->
    <g transform="translate(900, 400) rotate(25)">
        <circle r="75" fill="#8B0000" stroke="#5a0000" stroke-width="2"/>
        <circle cx="0" cy="-65" r="6" fill="#ffffff"/>
        <circle cx="46" cy="-46" r="6" fill="#ffffff"/>
        <circle cx="65" cy="0" r="6" fill="#ffffff"/>
        <circle cx="46" cy="46" r="6" fill="#ffffff"/>
        <circle cx="0" cy="65" r="6" fill="#ffffff"/>
        <circle cx="-46" cy="46" r="6" fill="#ffffff"/>
        <circle cx="-65" cy="0" r="6" fill="#ffffff"/>
        <circle cx="-46" cy="-46" r="6" fill="#ffffff"/>
        <circle r="58" fill="#DC143C" stroke="#B00020" stroke-width="3"/>
        <circle r="42" fill="none" stroke="#ffffff" stroke-width="2" stroke-dasharray="4,4"/>
        <text y="-8" font-family="Arial, sans-serif" font-size="20" font-weight="bold" fill="#ffffff" text-anchor="middle">$</text>
        <text y="25" font-family="Arial, sans-serif" font-size="35" font-weight="bold" fill="#ffffff" text-anchor="middle">5</text>
    </g>
    
    <!-- Chip $100 (black) - bottom right overlapping -->
    <g transform="translate(820, 450) rotate(-8)">
        <circle r="75" fill="#0a0a0a" stroke="#000000" stroke-width="2"/>
        <circle cx="0" cy="-65" r="6" fill="#ffffff"/>
        <circle cx="46" cy="-46" r="6" fill="#ffffff"/>
        <circle cx="65" cy="0" r="6" fill="#ffffff"/>
        <circle cx="46" cy="46" r="6" fill="#ffffff"/>
        <circle cx="0" cy="65" r="6" fill="#ffffff"/>
        <circle cx="-46" cy="46" r="6" fill="#ffffff"/>
        <circle cx="-65" cy="0" r="6" fill="#ffffff"/>
        <circle cx="-46" cy="-46" r="6" fill="#ffffff"/>
        <circle r="58" fill="#1a1a1a" stroke="#333333" stroke-width="3"/>
        <circle r="42" fill="none" stroke="#ffffff" stroke-width="2" stroke-dasharray="4,4"/>
        <text y="-8" font-family="Arial, sans-serif" font-size="20" font-weight="bold" fill="#ffffff" text-anchor="middle">$</text>
        <text y="25" font-family="Arial, sans-serif" font-size="28" font-weight="bold" fill="#ffffff" text-anchor="middle">100</text>
    </g>
    
    <!-- Chip $1 (white) - top center -->
    <g transform="translate(500, 30) rotate(5)">
        <circle r="75" fill="#2c2c2c" stroke="#1a1a1a" stroke-width="2"/>
        <circle cx="0" cy="-65" r="6" fill="#000000"/>
        <circle cx="46" cy="-46" r="6" fill="#000000"/>
        <circle cx="65" cy="0" r="6" fill="#000000"/>
        <circle cx="46" cy="46" r="6" fill="#000000"/>
        <circle cx="0" cy="65" r="6" fill="#000000"/>
        <circle cx="-46" cy="46" r="6" fill="#000000"/>
        <circle cx="-65" cy="0" r="6" fill="#000000"/>
        <circle cx="-46" cy="-46" r="6" fill="#000000"/>
        <circle r="58" fill="#f5f5f5" stroke="#d0d0d0" stroke-width="3"/>
        <circle r="42" fill="none" stroke="#333333" stroke-width="2" stroke-dasharray="4,4"/>
        <text y="-8" font-family="Arial, sans-serif" font-size="20" font-weight="bold" fill="#333333" text-anchor="middle">$</text>
        <text y="25" font-family="Arial, sans-serif" font-size="35" font-weight="bold" fill="#333333" text-anchor="middle">1</text>
    </g>
    
    <!-- Chip $500 (purple) - bottom center -->
    <g transform="translate(550, 470) rotate(-18)">
        <circle r="75" fill="#4B0082" stroke="#2d004e" stroke-width="2"/>
        <circle cx="0" cy="-65" r="6" fill="#FFD700"/>
        <circle cx="46" cy="-46" r="6" fill="#FFD700"/>
        <circle cx="65" cy="0" r="6" fill="#FFD700"/>
        <circle cx="46" cy="46" r="6" fill="#FFD700"/>
        <circle cx="0" cy="65" r="6" fill="#FFD700"/>
        <circle cx="-46" cy="46" r="6" fill="#FFD700"/>
        <circle cx="-65" cy="0" r="6" fill="#FFD700"/>
        <circle cx="-46" cy="-46" r="6" fill="#FFD700"/>
        <circle r="58" fill="#7B2CBF" stroke="#5a1f8f" stroke-width="3"/>
        <circle r="42" fill="none" stroke="#FFD700" stroke-width="2" stroke-dasharray="4,4"/>
        <text y="-8" font-family="Arial, sans-serif" font-size="20" font-weight="bold" fill="#FFD700" text-anchor="middle">$</text>
        <text y="25" font-family="Arial, sans-serif" font-size="28" font-weight="bold" fill="#FFD700" text-anchor="middle">500</text>
    </g>
    
    <!-- ============== FOREGROUND (On Top) ============== -->
    
    <!-- Playing Cards Icon (centered) -->
    <g transform="translate(280, 250)">
        <!-- Back card (slightly rotated and offset) - light gray to simulate depth -->
        <g transform="rotate(-15)">
            <rect x="-70" y="-100" width="140" height="200" rx="12" ry="12" fill="#C8D6D0"/>
        </g>
        
        <!-- Front card -->
        <g transform="rotate(10)">
            <rect x="-70" y="-100" width="140" height="200" rx="12" ry="12" fill="#ffffff"/>
            
            <!-- Spade symbol in center -->
            <path d="M0,-38 C-23,-15 -38,8 -38,27 C-38,42 -27,53 -11,53 C-3,53 3,50 6,45 L0,69 L-15,69 L-15,77 L15,77 L15,69 L0,69 L-6,45 C-3,50 3,53 11,53 C27,53 38,42 38,27 C38,8 23,-15 0,-38 Z" 
                  fill="#1a1a1a"/>
        </g>
    </g>
    
    <!-- App Title -->
    <text x="670" y="220" 
          font-family="Segoe UI, Arial, sans-serif" 
          font-size="52" 
          font-weight="600" 
          fill="#E2E8F0"
          text-anchor="middle">Ashtonne's Blackjack</text>
    
    <!-- Tagline -->
    <text x="670" y="280" 
          font-family="Segoe UI, Arial, sans-serif" 
          font-size="28" 
          font-weight="400" 
          fill="#94A3B8"
          text-anchor="middle">Classic Casino Blackjack</text>
</svg>